<?xml version="1.0" encoding="UTF-8"?>
<svg viewBox="0 0 980 3530" xmlns="http://www.w3.org/2000/svg" width="980" height="3530">
<title>flowchart-skill 自举：一条流程从材料到交付</title>
<defs><marker id="ar-main" viewBox="0 0 10 10" refX="10" refY="5" markerWidth="10" markerHeight="10" markerUnits="userSpaceOnUse" orient="auto"><path d="M0,0L10,5L0,10z" fill="#666666"/></marker><marker id="ar-negative" viewBox="0 0 10 10" refX="10" refY="5" markerWidth="10" markerHeight="10" markerUnits="userSpaceOnUse" orient="auto"><path d="M0,0L10,5L0,10z" fill="#adb5bd"/></marker></defs>
<path class="edge" data-from="01" data-to="01a" d="M 420 140 L 420 180" fill="none" stroke="#666666" stroke-width="2" marker-end="url(#ar-main)"/>
<path class="edge" data-from="01a" data-to="01b" d="M 420 240 L 420 270" fill="none" stroke="#666666" stroke-width="2" marker-end="url(#ar-main)"/>
<path class="edge" data-from="01b" data-to="01c" d="M 420 350 L 420 420" fill="none" stroke="#666666" stroke-width="2" marker-end="url(#ar-main)"/><g class="elab"><rect class="lab-r" x="400" y="380" width="40" height="20" rx="4" fill="#ffffff" stroke="#666666"/><text class="lab" x="420" y="394" text-anchor="middle" fill="#666666" font-size="11" font-weight="bold">是</text></g>
<path class="edge" data-from="01b" data-to="02" d="M 500 310 L 540 310 L 540 550 L 500 550" fill="none" stroke="#666666" stroke-width="2" marker-end="url(#ar-main)"/><g class="elab"><rect class="lab-r" x="520" y="420" width="40" height="20" rx="4" fill="#ffffff" stroke="#666666"/><text class="lab" x="540" y="434" text-anchor="middle" fill="#666666" font-size="11" font-weight="bold">否</text></g>
<path class="edge" data-from="01c" data-to="06" d="M 340 450 L 300 450 L 300 950 L 340 950" fill="none" stroke="#666666" stroke-width="2" marker-end="url(#ar-main)"/>
<path class="edge" data-from="02" data-to="03" d="M 420 580 L 420 620" fill="none" stroke="#666666" stroke-width="2" marker-end="url(#ar-main)"/>
<path class="edge" data-from="03" data-to="04" d="M 420 680 L 420 720" fill="none" stroke="#666666" stroke-width="2" marker-end="url(#ar-main)"/>
<path class="edge" data-from="04" data-to="05" d="M 420 780 L 420 820" fill="none" stroke="#666666" stroke-width="2" marker-end="url(#ar-main)"/>
<path class="edge" data-from="05" data-to="06" d="M 420 880 L 420 920" fill="none" stroke="#666666" stroke-width="2" marker-end="url(#ar-main)"/>
<path class="edge" data-from="06" data-to="07" d="M 420 980 L 420 1010" fill="none" stroke="#666666" stroke-width="2" marker-end="url(#ar-main)"/>
<path class="edge" data-from="07" data-to="08" d="M 420 1090 L 420 1160" fill="none" stroke="#666666" stroke-width="2" marker-end="url(#ar-main)"/><g class="elab"><rect class="lab-r" x="400" y="1120" width="40" height="20" rx="4" fill="#ffffff" stroke="#666666"/><text class="lab" x="420" y="1134" text-anchor="middle" fill="#666666" font-size="11" font-weight="bold">是</text></g>
<path class="edge" data-from="07" data-to="11" d="M 500 1050 L 540 1050 L 540 1520 M 540 1540 L 540 1650 L 500 1650" fill="none" stroke="#666666" stroke-width="2" marker-end="url(#ar-main)"/><g class="elab"><rect class="lab-r" x="520" y="1340" width="40" height="20" rx="4" fill="#ffffff" stroke="#666666"/><text class="lab" x="540" y="1354" text-anchor="middle" fill="#666666" font-size="11" font-weight="bold">否</text></g>
<path class="edge" data-from="08" data-to="09" d="M 420 1220 L 420 1260" fill="none" stroke="#666666" stroke-width="2" marker-end="url(#ar-main)"/>
<path class="edge" data-from="09" data-to="10" d="M 420 1320 L 420 1350" fill="none" stroke="#666666" stroke-width="2" marker-end="url(#ar-main)"/>
<path class="edge" data-from="10" data-to="09" d="M 340 1390 L 300 1390 L 300 1290 L 340 1290" fill="none" stroke="#adb5bd" stroke-width="2" stroke-dasharray="5 4" marker-end="url(#ar-negative)"/><g class="elab"><rect class="lab-r" x="280" y="1330" width="40" height="20" rx="4" fill="#ffffff" stroke="#adb5bd"/><text class="lab" x="300" y="1344" text-anchor="middle" fill="#adb5bd" font-size="11" font-weight="bold">改</text></g>
<path class="edge" data-from="10" data-to="10b" d="M 420 1430 L 420 1490" fill="none" stroke="#666666" stroke-width="2" marker-end="url(#ar-main)"/><g class="elab"><rect class="lab-r" x="400" y="1450" width="40" height="20" rx="4" fill="#ffffff" stroke="#666666"/><text class="lab" x="420" y="1464" text-anchor="middle" fill="#666666" font-size="11" font-weight="bold">不改</text></g>
<path class="edge" data-from="10b" data-to="11" d="M 420 1570 L 420 1640" fill="none" stroke="#666666" stroke-width="2" marker-end="url(#ar-main)"/><g class="elab"><rect class="lab-r" x="400" y="1600" width="40" height="20" rx="4" fill="#ffffff" stroke="#666666"/><text class="lab" x="420" y="1614" text-anchor="middle" fill="#666666" font-size="11" font-weight="bold">有</text></g>
<path class="edge" data-from="10b" data-to="26" d="M 500 1530 L 780 1530 L 780 2140 M 780 2160 L 780 3140 M 780 3160 L 780 3450 L 500 3450" fill="none" stroke="#666666" stroke-width="2" marker-end="url(#ar-main)"/><g class="elab"><rect class="lab-r" x="760" y="2480" width="40" height="20" rx="4" fill="#ffffff" stroke="#666666"/><text class="lab" x="780" y="2494" text-anchor="middle" fill="#666666" font-size="11" font-weight="bold">没有</text></g>
<path class="edge" data-from="11" data-to="12" d="M 420 1700 L 420 1730" fill="none" stroke="#666666" stroke-width="2" marker-end="url(#ar-main)"/>
<path class="edge" data-from="12" data-to="13" d="M 420 1810 L 420 1880" fill="none" stroke="#666666" stroke-width="2" marker-end="url(#ar-main)"/><g class="elab"><rect class="lab-r" x="400" y="1840" width="40" height="20" rx="4" fill="#ffffff" stroke="#666666"/><text class="lab" x="420" y="1854" text-anchor="middle" fill="#666666" font-size="11" font-weight="bold">通过</text></g>
<path class="edge" data-from="12" data-to="11" d="M 340 1770 L 300 1770 L 300 1690 L 340 1690" fill="none" stroke="#adb5bd" stroke-width="2" stroke-dasharray="5 4" marker-end="url(#ar-negative)"/><g class="elab"><rect class="lab-r" x="270" y="1720" width="60" height="20" rx="4" fill="#ffffff" stroke="#adb5bd"/><text class="lab" x="300" y="1734" text-anchor="middle" fill="#adb5bd" font-size="11" font-weight="bold">不通过</text></g>
<path class="edge" data-from="12" data-to="25" d="M 500 1770 L 700 1770 L 700 2140 M 700 2160 L 700 3140 M 700 3160 L 700 3350 L 500 3350" fill="none" stroke="#666666" stroke-width="2" marker-end="url(#ar-main)"/><g class="elab"><rect class="lab-r" x="660" y="2550" width="80" height="20" rx="4" fill="#ffffff" stroke="#666666"/><text class="lab" x="700" y="2564" text-anchor="middle" fill="#666666" font-size="11" font-weight="bold">仪器故障</text></g>
<path class="edge" data-from="13" data-to="14" d="M 420 1940 L 420 1970" fill="none" stroke="#666666" stroke-width="2" marker-end="url(#ar-main)"/>
<path class="edge" data-from="14" data-to="15" d="M 420 2050 L 420 2120" fill="none" stroke="#666666" stroke-width="2" marker-end="url(#ar-main)"/><g class="elab"><rect class="lab-r" x="400" y="2080" width="40" height="20" rx="4" fill="#ffffff" stroke="#666666"/><text class="lab" x="420" y="2094" text-anchor="middle" fill="#666666" font-size="11" font-weight="bold">有</text></g>
<path class="edge" data-from="14" data-to="16" d="M 500 2010 L 540 2010 L 540 2140 M 540 2160 L 540 2250 L 500 2250" fill="none" stroke="#666666" stroke-width="2" marker-end="url(#ar-main)"/><g class="elab"><rect class="lab-r" x="520" y="2120" width="40" height="20" rx="4" fill="#ffffff" stroke="#666666"/><text class="lab" x="540" y="2134" text-anchor="middle" fill="#666666" font-size="11" font-weight="bold">没有</text></g>
<path class="edge" data-from="15" data-to="01" d="M 500 2150 L 860 2150 L 860 860 M 860 840 L 860 110 L 500 110" fill="none" stroke="#adb5bd" stroke-width="2" stroke-dasharray="5 4" marker-end="url(#ar-negative)"/>
<path class="edge" data-from="16" data-to="17" d="M 420 2280 L 420 2310" fill="none" stroke="#666666" stroke-width="2" marker-end="url(#ar-main)"/>
<path class="edge" data-from="17" data-to="18" d="M 420 2390 L 420 2450" fill="none" stroke="#666666" stroke-width="2" marker-end="url(#ar-main)"/><g class="elab"><rect class="lab-r" x="400" y="2410" width="40" height="20" rx="4" fill="#ffffff" stroke="#666666"/><text class="lab" x="420" y="2424" text-anchor="middle" fill="#666666" font-size="11" font-weight="bold">通过</text></g>
<path class="edge" data-from="17" data-to="16" d="M 340 2350 L 300 2350 L 300 2270 L 340 2270" fill="none" stroke="#adb5bd" stroke-width="2" stroke-dasharray="5 4" marker-end="url(#ar-negative)"/><g class="elab"><rect class="lab-r" x="270" y="2300" width="60" height="20" rx="4" fill="#ffffff" stroke="#adb5bd"/><text class="lab" x="300" y="2314" text-anchor="middle" fill="#adb5bd" font-size="11" font-weight="bold">有问题</text></g>
<path class="edge" data-from="18" data-to="11" d="M 500 2490 L 620 2490 L 620 2160 M 620 2140 L 620 1780 M 620 1760 L 620 1690 L 500 1690" fill="none" stroke="#adb5bd" stroke-width="2" stroke-dasharray="5 4" marker-end="url(#ar-negative)"/><g class="elab"><rect class="lab-r" x="600" y="2080" width="40" height="20" rx="4" fill="#ffffff" stroke="#adb5bd"/><text class="lab" x="620" y="2094" text-anchor="middle" fill="#adb5bd" font-size="11" font-weight="bold">有</text></g>
<path class="edge" data-from="18" data-to="19" d="M 420 2530 L 420 2600" fill="none" stroke="#666666" stroke-width="2" marker-end="url(#ar-main)"/><g class="elab"><rect class="lab-r" x="400" y="2560" width="40" height="20" rx="4" fill="#ffffff" stroke="#666666"/><text class="lab" x="420" y="2574" text-anchor="middle" fill="#666666" font-size="11" font-weight="bold">没有</text></g>
<path class="edge" data-from="19" data-to="20" d="M 420 2660 L 420 2740" fill="none" stroke="#666666" stroke-width="2" marker-end="url(#ar-main)"/><g class="elab"><rect class="lab-r" x="390" y="2690" width="60" height="20" rx="4" fill="#ffffff" stroke="#666666"/><text class="lab" x="420" y="2704" text-anchor="middle" fill="#666666" font-size="11" font-weight="bold">都没变</text></g>
<path class="edge" data-from="19" data-to="11" d="M 340 2630 L 140 2630 L 140 1670 L 340 1670" fill="none" stroke="#adb5bd" stroke-width="2" stroke-dasharray="5 4" marker-end="url(#ar-negative)"/><g class="elab"><rect class="lab-r" x="100" y="2140" width="80" height="20" rx="4" fill="#ffffff" stroke="#adb5bd"/><text class="lab" x="140" y="2154" text-anchor="middle" fill="#adb5bd" font-size="11" font-weight="bold">改了语义</text></g>
<path class="edge" data-from="19" data-to="16" d="M 340 2610 L 220 2610 L 220 2250 L 340 2250" fill="none" stroke="#adb5bd" stroke-width="2" stroke-dasharray="5 4" marker-end="url(#ar-negative)"/><g class="elab"><rect class="lab-r" x="180" y="2420" width="80" height="20" rx="4" fill="#ffffff" stroke="#adb5bd"/><text class="lab" x="220" y="2434" text-anchor="middle" fill="#adb5bd" font-size="11" font-weight="bold">只动几何</text></g>
<path class="edge" data-from="20" data-to="21" d="M 420 2800 L 420 2830" fill="none" stroke="#666666" stroke-width="2" marker-end="url(#ar-main)"/>
<path class="edge" data-from="21" data-to="24" d="M 460 2890 L 540 2890 L 540 3140 M 540 3160 L 540 3250 L 500 3250" fill="none" stroke="#666666" stroke-width="2" marker-end="url(#ar-main)"/><g class="elab"><rect class="lab-r" x="520" y="3040" width="40" height="20" rx="4" fill="#ffffff" stroke="#666666"/><text class="lab" x="540" y="3054" text-anchor="middle" fill="#666666" font-size="11" font-weight="bold">收敛</text></g>
<path class="edge" data-from="21" data-to="22" d="M 420 2910 L 420 2970" fill="none" stroke="#666666" stroke-width="2" marker-end="url(#ar-main)"/><g class="elab"><rect class="lab-r" x="390" y="2930" width="60" height="20" rx="4" fill="#ffffff" stroke="#666666"/><text class="lab" x="420" y="2944" text-anchor="middle" fill="#666666" font-size="11" font-weight="bold">没收敛</text></g>
<path class="edge" data-from="21" data-to="25" d="M 500 2870 L 620 2870 L 620 3140 M 620 3160 L 620 3330 L 500 3330" fill="none" stroke="#666666" stroke-width="2" marker-end="url(#ar-main)"/><g class="elab"><rect class="lab-r" x="580" y="3090" width="80" height="20" rx="4" fill="#ffffff" stroke="#666666"/><text class="lab" x="620" y="3104" text-anchor="middle" fill="#666666" font-size="11" font-weight="bold">仪器故障</text></g>
<path class="edge" data-from="22" data-to="23" d="M 420 3050 L 420 3120" fill="none" stroke="#666666" stroke-width="2" marker-end="url(#ar-main)"/><g class="elab"><rect class="lab-r" x="390" y="3080" width="60" height="20" rx="4" fill="#ffffff" stroke="#666666"/><text class="lab" x="420" y="3094" text-anchor="middle" fill="#666666" font-size="11" font-weight="bold">材料侧</text></g>
<path class="edge" data-from="22" data-to="11" d="M 340 3010 L 60 3010 L 60 1650 L 340 1650" fill="none" stroke="#adb5bd" stroke-width="2" stroke-dasharray="5 4" marker-end="url(#ar-negative)"/><g class="elab"><rect class="lab-r" x="40" y="2320" width="40" height="20" rx="4" fill="#ffffff" stroke="#adb5bd"/><text class="lab" x="60" y="2334" text-anchor="middle" fill="#adb5bd" font-size="11" font-weight="bold">表侧</text></g>
<path class="edge" data-from="23" data-to="05" d="M 500 3150 L 940 3150 L 940 850 L 500 850" fill="none" stroke="#adb5bd" stroke-width="2" stroke-dasharray="5 4" marker-end="url(#ar-negative)"/>
<g class="ndg" data-id="01" transform="translate(420,110)"><rect class="shape" x="-80" y="-30" width="160" height="60" rx="30" fill="#ffffff" stroke="#999999" stroke-width="2"/><text class="t1" x="0" y="-4" text-anchor="middle" fill="#333333" font-size="12" font-weight="bold">收到材料</text><text class="tm" x="0" y="12" text-anchor="middle" fill="#555555" font-size="10">用户</text></g>
<g class="ndg" data-id="01a" transform="translate(420,210)"><rect class="shape" x="-80" y="-30" width="160" height="60" rx="3.6" fill="#ffffff" stroke="#d97706" stroke-width="2" stroke-dasharray="6 4"/><text class="t1" x="0" y="-12" text-anchor="middle" fill="#333333" font-size="12" font-weight="bold">建目录</text><text class="tm" x="0" y="4" text-anchor="middle" fill="#555555" font-size="10">init.py</text><text class="tt2" x="0" y="20" text-anchor="middle" fill="#b45309" font-size="10" font-weight="bold">1-2 秒</text></g>
<g class="ndg" data-id="01b" transform="translate(420,310)"><polygon class="shape" points="0,-40 80,0 0,40 -80,0" fill="#ffffff" stroke="#999999" stroke-width="2"/><text class="t1" x="0" y="4" text-anchor="middle" fill="#333333" font-size="12" font-weight="bold">手上是已有图吗？</text></g>
<g class="ndg" data-id="01c" transform="translate(420,450)"><rect class="shape" x="-80" y="-30" width="160" height="60" rx="3.6" fill="#ffffff" stroke="#999999" stroke-width="2"/><text class="t1" x="0" y="-12" text-anchor="middle" fill="#333333" font-size="12" font-weight="bold">读一张已有的图</text><text class="tm" x="0" y="4" text-anchor="middle" fill="#555555" font-size="10">xml_reader.py · import_table.py</text><text class="tt2" x="0" y="20" text-anchor="middle" fill="#b45309" font-size="10" font-weight="bold">1-5 秒</text></g>
<g class="ndg" data-id="02" transform="translate(420,550)"><rect class="sub-ring" x="-78" y="-28" width="156" height="56" rx="3.36" fill="none" stroke="#999999" stroke-width="1" opacity="0.55"/><rect class="shape" x="-80" y="-30" width="160" height="60" rx="3.6" fill="#ffffff" stroke="#999999" stroke-width="2"/><text class="t1" x="0" y="-4" text-anchor="middle" fill="#333333" font-size="12" font-weight="bold">读回现状对齐口径</text><text class="tm" x="0" y="12" text-anchor="middle" fill="#555555" font-size="10">AI</text></g>
<g class="ndg" data-id="03" transform="translate(420,650)"><rect class="shape" x="-80" y="-30" width="160" height="60" rx="3.6" fill="#ffffff" stroke="#999999" stroke-width="2"/><text class="t1" x="0" y="-12" text-anchor="middle" fill="#333333" font-size="12" font-weight="bold">探测分档</text><text class="tm" x="0" y="4" text-anchor="middle" fill="#555555" font-size="10">probe.py</text><text class="tt2" x="0" y="20" text-anchor="middle" fill="#b45309" font-size="10" font-weight="bold">1-2 秒</text></g>
<g class="ndg" data-id="04" transform="translate(420,750)"><rect class="sub-ring" x="-78" y="-28" width="156" height="56" rx="3.36" fill="none" stroke="#999999" stroke-width="1" opacity="0.55"/><rect class="shape" x="-80" y="-30" width="160" height="60" rx="3.6" fill="#ffffff" stroke="#999999" stroke-width="2"/><text class="t1" x="0" y="-12" text-anchor="middle" fill="#333333" font-size="12" font-weight="bold">侦查：排序与假设</text><text class="tm" x="0" y="4" text-anchor="middle" fill="#555555" font-size="10">recon.py</text><text class="tt2" x="0" y="20" text-anchor="middle" fill="#b45309" font-size="10" font-weight="bold">2-10 秒</text></g>
<g class="ndg" data-id="05" transform="translate(420,850)"><rect class="shape" x="-80" y="-30" width="160" height="60" rx="3.6" fill="#ffffff" stroke="#999999" stroke-width="2"/><text class="t1" x="0" y="-12" text-anchor="middle" fill="#333333" font-size="12" font-weight="bold">解析入账</text><text class="tm" x="0" y="4" text-anchor="middle" fill="#555555" font-size="10">parse.py → ledger.py</text><text class="tt2" x="0" y="20" text-anchor="middle" fill="#b45309" font-size="10" font-weight="bold">5-60 秒</text></g>
<g class="ndg" data-id="06" transform="translate(420,950)"><rect class="shape" x="-80" y="-30" width="160" height="60" rx="3.6" fill="#ffffff" stroke="#dc2626" stroke-width="2" stroke-dasharray="2 3"/><text class="t1" x="0" y="-4" text-anchor="middle" fill="#333333" font-size="12" font-weight="bold">定范围：主体 / 目的 / 材料根</text><text class="tm" x="0" y="12" text-anchor="middle" fill="#555555" font-size="10">AI 问、用户答</text></g>
<g class="ndg" data-id="07" transform="translate(420,1050)"><polygon class="shape" points="0,-40 80,0 0,40 -80,0" fill="#ffffff" stroke="#d97706" stroke-width="2" stroke-dasharray="6 4"/><text class="t1" x="0" y="4" text-anchor="middle" fill="#333333" font-size="12" font-weight="bold">要分堆吗？</text></g>
<g class="ndg" data-id="08" transform="translate(420,1190)"><rect class="shape" x="-80" y="-30" width="160" height="60" rx="3.6" fill="#ffffff" stroke="#999999" stroke-width="2"/><text class="t1" x="0" y="-4" text-anchor="middle" fill="#333333" font-size="12" font-weight="bold">清点成卡片</text><text class="tm" x="0" y="12" text-anchor="middle" fill="#555555" font-size="10">AI（脚本 build/check）</text></g>
<g class="ndg" data-id="09" transform="translate(420,1290)"><rect class="shape" x="-80" y="-30" width="160" height="60" rx="3.6" fill="#ffffff" stroke="#999999" stroke-width="2"/><text class="t1" x="0" y="-4" text-anchor="middle" fill="#333333" font-size="12" font-weight="bold">拆解成计划</text><text class="tm" x="0" y="12" text-anchor="middle" fill="#555555" font-size="10">AI（脚本 build/check）</text></g>
<g class="ndg" data-id="10" transform="translate(420,1390)"><polygon class="shape" points="0,-40 80,0 0,40 -80,0" fill="#ffffff" stroke="#999999" stroke-width="2"/><text class="t1" x="0" y="4" text-anchor="middle" fill="#333333" font-size="12" font-weight="bold">计划要改吗？</text></g>
<g class="ndg" data-id="10b" transform="translate(420,1530)"><polygon class="shape" points="0,-40 80,0 0,40 -80,0" fill="#ffffff" stroke="#999999" stroke-width="2"/><text class="t1" x="0" y="4" text-anchor="middle" fill="#333333" font-size="12" font-weight="bold">这次有流程吗？</text></g>
<g class="ndg" data-id="11" transform="translate(420,1670)"><rect class="sub-ring" x="-78" y="-28" width="156" height="56" rx="3.36" fill="none" stroke="#999999" stroke-width="1" opacity="0.55"/><rect class="shape" x="-80" y="-30" width="160" height="60" rx="3.6" fill="#ffffff" stroke="#999999" stroke-width="2"/><text class="t1" x="0" y="-4" text-anchor="middle" fill="#333333" font-size="12" font-weight="bold">落流程表</text><text class="tm" x="0" y="12" text-anchor="middle" fill="#555555" font-size="10">AI</text></g>
<g class="ndg" data-id="12" transform="translate(420,1770)"><polygon class="sub-ring" points="0,-38 78,0 0,38 -78,0" fill="none" stroke="#999999" stroke-width="1" opacity="0.55"/><polygon class="shape" points="0,-40 80,0 0,40 -80,0" fill="#ffffff" stroke="#999999" stroke-width="2"/><text class="t1" x="0" y="4" text-anchor="middle" fill="#333333" font-size="12" font-weight="bold">结构校验？</text></g>
<g class="ndg" data-id="13" transform="translate(420,1910)"><rect class="sub-ring" x="-78" y="-28" width="156" height="56" rx="3.36" fill="none" stroke="#999999" stroke-width="1" opacity="0.55"/><rect class="shape" x="-80" y="-30" width="160" height="60" rx="3.6" fill="#ffffff" stroke="#999999" stroke-width="2"/><text class="t1" x="0" y="-4" text-anchor="middle" fill="#333333" font-size="12" font-weight="bold">逐行回看内容出处</text><text class="tm" x="0" y="12" text-anchor="middle" fill="#555555" font-size="10">AI</text></g>
<g class="ndg" data-id="14" transform="translate(420,2010)"><polygon class="shape" points="0,-40 80,0 0,40 -80,0" fill="#ffffff" stroke="#999999" stroke-width="2"/><text class="t1" x="0" y="4" text-anchor="middle" fill="#333333" font-size="12" font-weight="bold">有待裁决项？</text></g>
<g class="ndg" data-id="15" transform="translate(420,2150)"><rect class="shape" x="-80" y="-30" width="160" height="60" rx="3.6" fill="#ffffff" stroke="#999999" stroke-width="2"/><text class="t1" x="0" y="-4" text-anchor="middle" fill="#333333" font-size="12" font-weight="bold">问并收答复</text><text class="tm" x="0" y="12" text-anchor="middle" fill="#555555" font-size="10">用户</text></g>
<g class="ndg" data-id="16" transform="translate(420,2250)"><rect class="sub-ring" x="-78" y="-28" width="156" height="56" rx="3.36" fill="none" stroke="#999999" stroke-width="1" opacity="0.55"/><rect class="shape" x="-80" y="-30" width="160" height="60" rx="3.6" fill="#ffffff" stroke="#999999" stroke-width="2"/><text class="t1" x="0" y="-12" text-anchor="middle" fill="#333333" font-size="12" font-weight="bold">渲染三份视图</text><text class="tm" x="0" y="4" text-anchor="middle" fill="#555555" font-size="10">build.py</text><text class="tt2" x="0" y="20" text-anchor="middle" fill="#b45309" font-size="10" font-weight="bold">5-30 秒</text></g>
<g class="ndg" data-id="17" transform="translate(420,2350)"><polygon class="sub-ring" points="0,-38 78,0 0,38 -78,0" fill="none" stroke="#999999" stroke-width="1" opacity="0.55"/><polygon class="shape" points="0,-40 80,0 0,40 -80,0" fill="#ffffff" stroke="#999999" stroke-width="2"/><text class="t1" x="0" y="4" text-anchor="middle" fill="#333333" font-size="12" font-weight="bold">视觉自检通过？</text></g>
<g class="ndg" data-id="18" transform="translate(420,2490)"><polygon class="shape" points="0,-40 80,0 0,40 -80,0" fill="#ffffff" stroke="#999999" stroke-width="2"/><text class="t1" x="0" y="4" text-anchor="middle" fill="#333333" font-size="12" font-weight="bold">表被直改过吗？</text></g>
<g class="ndg" data-id="19" transform="translate(420,2630)"><rect class="sub-ring" x="-78" y="-28" width="156" height="56" rx="3.36" fill="none" stroke="#999999" stroke-width="1" opacity="0.55"/><rect class="shape" x="-80" y="-30" width="160" height="60" rx="3.6" fill="#ffffff" stroke="#999999" stroke-width="2"/><text class="t1" x="0" y="-12" text-anchor="middle" fill="#333333" font-size="12" font-weight="bold">读回并分拣改动</text><text class="tm" x="0" y="4" text-anchor="middle" fill="#555555" font-size="10">sync.py</text><text class="tt2" x="0" y="20" text-anchor="middle" fill="#b45309" font-size="10" font-weight="bold">2-10 秒</text></g>
<g class="ndg" data-id="20" transform="translate(420,2770)"><rect class="sub-ring" x="-78" y="-28" width="156" height="56" rx="3.36" fill="none" stroke="#999999" stroke-width="1" opacity="0.55"/><rect class="shape" x="-80" y="-30" width="160" height="60" rx="3.6" fill="#ffffff" stroke="#999999" stroke-width="2"/><text class="t1" x="0" y="-12" text-anchor="middle" fill="#333333" font-size="12" font-weight="bold">对账：漂移</text><text class="tm" x="0" y="4" text-anchor="middle" fill="#555555" font-size="10">drift.py</text><text class="tt2" x="0" y="20" text-anchor="middle" fill="#b45309" font-size="10" font-weight="bold">2-10 秒</text></g>
<g class="ndg" data-id="21" transform="translate(420,2870)"><polygon class="shape" points="0,-40 80,0 0,40 -80,0" fill="#ffffff" stroke="#999999" stroke-width="2"/><text class="t1" x="0" y="4" text-anchor="middle" fill="#333333" font-size="12" font-weight="bold">收敛了吗？</text></g>
<g class="ndg" data-id="22" transform="translate(420,3010)"><polygon class="shape" points="0,-40 80,0 0,40 -80,0" fill="#ffffff" stroke="#999999" stroke-width="2"/><text class="t1" x="0" y="4" text-anchor="middle" fill="#333333" font-size="12" font-weight="bold">缺口在哪一头？</text></g>
<g class="ndg" data-id="23" transform="translate(420,3150)"><rect class="shape" x="-80" y="-30" width="160" height="60" rx="3.6" fill="#ffffff" stroke="#999999" stroke-width="2"/><text class="t1" x="0" y="-12" text-anchor="middle" fill="#333333" font-size="12" font-weight="bold">攻坚：点名取子集再读</text><text class="tm" x="0" y="4" text-anchor="middle" fill="#555555" font-size="10">query.py · render_pages.py</text><text class="tt2" x="0" y="20" text-anchor="middle" fill="#b45309" font-size="10" font-weight="bold">1-5 秒</text></g>
<g class="ndg" data-id="24" transform="translate(420,3250)"><rect class="shape" x="-80" y="-30" width="160" height="60" rx="30" fill="#ffffff" stroke="#999999" stroke-width="2"/><text class="t1" x="0" y="-4" text-anchor="middle" fill="#333333" font-size="12" font-weight="bold">交付</text><text class="tm" x="0" y="12" text-anchor="middle" fill="#555555" font-size="10">用户</text></g>
<g class="ndg" data-id="25" transform="translate(420,3350)"><rect class="shape" x="-80" y="-30" width="160" height="60" rx="30" fill="#ffffff" stroke="#999999" stroke-width="2"/><text class="t1" x="0" y="-4" text-anchor="middle" fill="#333333" font-size="12" font-weight="bold">停下报出（仪器故障）</text><text class="tm" x="0" y="12" text-anchor="middle" fill="#555555" font-size="10">出错的那个脚本</text></g>
<g class="ndg" data-id="26" transform="translate(420,3450)"><rect class="shape" x="-80" y="-30" width="160" height="60" rx="30" fill="#ffffff" stroke="#999999" stroke-width="2"/><text class="t1" x="0" y="-4" text-anchor="middle" fill="#333333" font-size="12" font-weight="bold">本次不出图</text><text class="tm" x="0" y="12" text-anchor="middle" fill="#555555" font-size="10">AI</text></g>
</svg>
